<?xml version="1.0" encoding="UTF-8"?>
<svg xmlns="http://www.w3.org/2000/svg" xmlns:xlink="http://www.w3.org/1999/xlink" viewBox="0 0 144 144" width="144px" height="144px">
<g id="surface620746">
<path style=" stroke:none;fill-rule:nonzero;fill:rgb(18.82353%,98.431373%,93.725491%);fill-opacity:1;" d="M 118.460938 20.9375 C 117.269531 20.964844 116.140625 21.460938 115.320312 22.316406 L 72 65.636719 L 28.683594 22.316406 C 27.835938 21.445312 26.667969 20.953125 25.453125 20.953125 C 23.621094 20.953125 21.972656 22.0625 21.285156 23.761719 C 20.59375 25.460938 21.003906 27.40625 22.320312 28.679688 L 65.636719 72 L 22.320312 115.316406 C 21.144531 116.445312 20.667969 118.121094 21.082031 119.699219 C 21.492188 121.277344 22.722656 122.507812 24.300781 122.917969 C 25.878906 123.332031 27.554688 122.855469 28.683594 121.679688 L 72 78.363281 L 115.320312 121.679688 C 116.445312 122.855469 118.125 123.332031 119.699219 122.917969 C 121.277344 122.507812 122.507812 121.277344 122.917969 119.699219 C 123.332031 118.121094 122.855469 116.445312 121.683594 115.316406 L 78.363281 72 L 121.683594 28.679688 C 123.019531 27.394531 123.433594 25.421875 122.71875 23.707031 C 122.007812 21.992188 120.316406 20.890625 118.460938 20.933594 Z M 118.460938 20.9375 "/>
</g>
</svg>
