<svg width="12" height="10" viewBox="0 0 12 10" fill="none" xmlns="http://www.w3.org/2000/svg">
<path d="M11.8401 5.32772L8.02188 9.1459C7.8089 9.35889 7.46359 9.35889 7.25061 9.1459V9.1459C7.03762 8.93292 7.03762 8.58761 7.2506 8.37463L10.1377 5.48754L0.545332 5.48754C0.243696 5.48754 -0.00012207 5.24318 -0.00012207 4.94209C-0.00012207 4.64099 0.243696 4.39663 0.545332 4.39663L10.1377 4.39663L7.2506 1.50954C7.03762 1.29656 7.03762 0.951248 7.25061 0.738267V0.738267C7.46359 0.525286 7.8089 0.525286 8.02188 0.738267L11.8401 4.55645C12.0533 4.76972 12.0533 5.11445 11.8401 5.32772Z" fill="#9C69E2"/>
</svg>
